<mxfile host="app.diagrams.net" agent="Mozilla/5.0 (Windows NT 10.0; Win64; x64) AppleWebKit/537.36 (KHTML, like Gecko) Chrome/135.0.0.0 Safari/537.36" version="26.2.13">
  <diagram name="第 1 页" id="DBCCiijduCALXncD1oMZ">
    <mxGraphModel dx="1354" dy="732" grid="1" gridSize="10" guides="1" tooltips="1" connect="1" arrows="1" fold="1" page="1" pageScale="1" pageWidth="827" pageHeight="1169" math="0" shadow="0">
      <root>
        <mxCell id="0" />
        <mxCell id="1" parent="0" />
        <mxCell id="M35hCcoHYWeULt4UMcNa-1" value="" style="endArrow=classic;html=1;rounded=0;" edge="1" parent="1">
          <mxGeometry width="50" height="50" relative="1" as="geometry">
            <mxPoint x="130" y="360" as="sourcePoint" />
            <mxPoint x="520" y="360" as="targetPoint" />
          </mxGeometry>
        </mxCell>
        <mxCell id="M35hCcoHYWeULt4UMcNa-2" value="w(x)" style="text;html=1;align=center;verticalAlign=middle;resizable=0;points=[];autosize=1;strokeColor=none;fillColor=none;" vertex="1" parent="1">
          <mxGeometry x="140" y="300" width="50" height="30" as="geometry" />
        </mxCell>
        <mxCell id="M35hCcoHYWeULt4UMcNa-3" value="" style="endArrow=classic;html=1;rounded=0;" edge="1" parent="1">
          <mxGeometry width="50" height="50" relative="1" as="geometry">
            <mxPoint x="130" y="330" as="sourcePoint" />
            <mxPoint x="520" y="330" as="targetPoint" />
          </mxGeometry>
        </mxCell>
        <mxCell id="M35hCcoHYWeULt4UMcNa-4" value="" style="endArrow=classic;html=1;rounded=0;" edge="1" parent="1">
          <mxGeometry width="50" height="50" relative="1" as="geometry">
            <mxPoint x="130" y="390" as="sourcePoint" />
            <mxPoint x="520" y="390" as="targetPoint" />
          </mxGeometry>
        </mxCell>
        <mxCell id="M35hCcoHYWeULt4UMcNa-5" value="P1" style="text;html=1;align=center;verticalAlign=middle;resizable=0;points=[];autosize=1;strokeColor=none;fillColor=none;" vertex="1" parent="1">
          <mxGeometry x="90" y="310" width="40" height="30" as="geometry" />
        </mxCell>
        <mxCell id="M35hCcoHYWeULt4UMcNa-6" value="P2" style="text;html=1;align=center;verticalAlign=middle;resizable=0;points=[];autosize=1;strokeColor=none;fillColor=none;" vertex="1" parent="1">
          <mxGeometry x="90" y="340" width="40" height="30" as="geometry" />
        </mxCell>
        <mxCell id="M35hCcoHYWeULt4UMcNa-7" value="P3" style="text;html=1;align=center;verticalAlign=middle;resizable=0;points=[];autosize=1;strokeColor=none;fillColor=none;" vertex="1" parent="1">
          <mxGeometry x="90" y="368" width="40" height="30" as="geometry" />
        </mxCell>
        <mxCell id="M35hCcoHYWeULt4UMcNa-8" value="w(y)" style="text;html=1;align=center;verticalAlign=middle;resizable=0;points=[];autosize=1;strokeColor=none;fillColor=none;" vertex="1" parent="1">
          <mxGeometry x="240" y="300" width="50" height="30" as="geometry" />
        </mxCell>
        <mxCell id="M35hCcoHYWeULt4UMcNa-9" value="w(z)" style="text;html=1;align=center;verticalAlign=middle;resizable=0;points=[];autosize=1;strokeColor=none;fillColor=none;" vertex="1" parent="1">
          <mxGeometry x="348.5" y="300" width="50" height="30" as="geometry" />
        </mxCell>
        <mxCell id="M35hCcoHYWeULt4UMcNa-32" value="" style="group" vertex="1" connectable="0" parent="1">
          <mxGeometry x="387" y="330" width="27" height="60" as="geometry" />
        </mxCell>
        <mxCell id="M35hCcoHYWeULt4UMcNa-33" value="" style="endArrow=classic;html=1;rounded=0;" edge="1" parent="M35hCcoHYWeULt4UMcNa-32">
          <mxGeometry width="50" height="50" relative="1" as="geometry">
            <mxPoint as="sourcePoint" />
            <mxPoint x="27" y="60" as="targetPoint" />
          </mxGeometry>
        </mxCell>
        <mxCell id="M35hCcoHYWeULt4UMcNa-34" value="" style="endArrow=classic;html=1;rounded=0;" edge="1" parent="M35hCcoHYWeULt4UMcNa-32">
          <mxGeometry width="50" height="50" relative="1" as="geometry">
            <mxPoint as="sourcePoint" />
            <mxPoint x="27" y="30" as="targetPoint" />
          </mxGeometry>
        </mxCell>
        <mxCell id="M35hCcoHYWeULt4UMcNa-39" value="" style="group" vertex="1" connectable="0" parent="1">
          <mxGeometry x="180" y="330" width="27" height="60" as="geometry" />
        </mxCell>
        <mxCell id="M35hCcoHYWeULt4UMcNa-40" value="" style="endArrow=classic;html=1;rounded=0;" edge="1" parent="M35hCcoHYWeULt4UMcNa-39">
          <mxGeometry width="50" height="50" relative="1" as="geometry">
            <mxPoint as="sourcePoint" />
            <mxPoint x="27" y="60" as="targetPoint" />
          </mxGeometry>
        </mxCell>
        <mxCell id="M35hCcoHYWeULt4UMcNa-41" value="" style="endArrow=classic;html=1;rounded=0;" edge="1" parent="M35hCcoHYWeULt4UMcNa-39">
          <mxGeometry width="50" height="50" relative="1" as="geometry">
            <mxPoint as="sourcePoint" />
            <mxPoint x="27" y="30" as="targetPoint" />
          </mxGeometry>
        </mxCell>
        <mxCell id="M35hCcoHYWeULt4UMcNa-42" value="" style="group" vertex="1" connectable="0" parent="1">
          <mxGeometry x="280" y="330" width="27" height="60" as="geometry" />
        </mxCell>
        <mxCell id="M35hCcoHYWeULt4UMcNa-43" value="" style="endArrow=classic;html=1;rounded=0;" edge="1" parent="M35hCcoHYWeULt4UMcNa-42">
          <mxGeometry width="50" height="50" relative="1" as="geometry">
            <mxPoint as="sourcePoint" />
            <mxPoint x="27" y="60" as="targetPoint" />
          </mxGeometry>
        </mxCell>
        <mxCell id="M35hCcoHYWeULt4UMcNa-44" value="" style="endArrow=classic;html=1;rounded=0;" edge="1" parent="M35hCcoHYWeULt4UMcNa-42">
          <mxGeometry width="50" height="50" relative="1" as="geometry">
            <mxPoint as="sourcePoint" />
            <mxPoint x="27" y="30" as="targetPoint" />
          </mxGeometry>
        </mxCell>
        <mxCell id="M35hCcoHYWeULt4UMcNa-47" value="update x list" style="text;html=1;align=center;verticalAlign=middle;resizable=0;points=[];autosize=1;strokeColor=none;fillColor=none;" vertex="1" parent="1">
          <mxGeometry x="190" y="330" width="90" height="30" as="geometry" />
        </mxCell>
        <mxCell id="M35hCcoHYWeULt4UMcNa-48" value="update y list" style="text;html=1;align=center;verticalAlign=middle;resizable=0;points=[];autosize=1;strokeColor=none;fillColor=none;" vertex="1" parent="1">
          <mxGeometry x="290" y="330" width="90" height="30" as="geometry" />
        </mxCell>
        <mxCell id="M35hCcoHYWeULt4UMcNa-49" value="update z list" style="text;html=1;align=center;verticalAlign=middle;resizable=0;points=[];autosize=1;strokeColor=none;fillColor=none;" vertex="1" parent="1">
          <mxGeometry x="398.5" y="330" width="90" height="30" as="geometry" />
        </mxCell>
      </root>
    </mxGraphModel>
  </diagram>
</mxfile>
